<?xml version="1.0" encoding="UTF-8" standalone="no"?>
<svg
   xmlns:dc="http://purl.org/dc/elements/1.1/"
   xmlns:cc="http://creativecommons.org/ns#"
   xmlns:rdf="http://www.w3.org/1999/02/22-rdf-syntax-ns#"
   xmlns:svg="http://www.w3.org/2000/svg"
   xmlns="http://www.w3.org/2000/svg"
   xmlns:sodipodi="http://sodipodi.sourceforge.net/DTD/sodipodi-0.dtd"
   xmlns:inkscape="http://www.inkscape.org/namespaces/inkscape"
   width="210mm"
   height="297mm"
   viewBox="0 0 210 297"
   version="1.1"
   id="svg8"
   inkscape:version="1.0.1 (3bc2e813f5, 2020-09-07)"
   sodipodi:docname="oeil.svg">
  <defs
     id="defs2" />
  <sodipodi:namedview
     id="base"
     pagecolor="#ffffff"
     bordercolor="#666666"
     borderopacity="1.0"
     inkscape:pageopacity="0.0"
     inkscape:pageshadow="2"
     inkscape:zoom="0.7"
     inkscape:cx="124.0149"
     inkscape:cy="540.02511"
     inkscape:document-units="mm"
     inkscape:current-layer="g26"
     inkscape:document-rotation="0"
     showgrid="false"
     inkscape:window-width="1600"
     inkscape:window-height="837"
     inkscape:window-x="-8"
     inkscape:window-y="-8"
     inkscape:window-maximized="1" />
  <metadata
     id="metadata5">
    <rdf:RDF>
      <cc:Work
         rdf:about="">
        <dc:format>image/svg+xml</dc:format>
        <dc:type
           rdf:resource="http://purl.org/dc/dcmitype/StillImage" />
        <dc:title />
      </cc:Work>
    </rdf:RDF>
  </metadata>
  <g
     inkscape:label="Calque 1"
     inkscape:groupmode="layer"
     id="layer1">
    <g
       id="g26"
       transform="matrix(0.38981819,0,0,0.38752731,35.641423,102.82391)">
      <path
         d="M 286.367,37.496 C 251.172,12.615 213.703,0 175,0 136.297,0 98.828,12.615 63.633,37.496 40.699,53.709 19.4,74.646 0,100 19.4,125.354 40.699,146.291 63.633,162.504 98.828,187.385 136.297,200 175,200 213.703,200 251.172,187.385 286.367,162.504 309.301,146.291 330.6,125.354 350,100 330.6,74.646 309.301,53.709 286.367,37.496 Z M 175,174.875 C 121.501,174.875 71.736,147.26 30.397,100 71.736,52.74 121.501,25.125 175,25.125 228.498,25.125 278.264,52.739 319.603,100 278.264,147.26 228.498,174.875 175,174.875 Z"
         id="path10"
         style="fill:#b66f63;fill-opacity:1" />
      <circle
         cx="174.51518"
         cy="100.48768"
         r="57.5"
         id="circle12"
         style="fill:#e3dbdb" />
      <circle
         fill="#ffffff"
         cx="160"
         cy="85"
         r="20"
         id="circle14" />
    </g>
  </g>
</svg>
